<?xml version="1.0" standalone="no"?>
<!DOCTYPE svg PUBLIC "-//W3C//DTD SVG 20010904//EN"
 "http://www.w3.org/TR/2001/REC-SVG-20010904/DTD/svg10.dtd">
<svg version="1.0" xmlns="http://www.w3.org/2000/svg"
 width="260.000000pt" height="260.000000pt" viewBox="0 0 260.000000 260.000000"
 preserveAspectRatio="xMidYMid meet">
<metadata>
Created by potrace 1.11, written by Peter Selinger 2001-2013
</metadata>
<g transform="translate(0.000000,260.000000) scale(0.100000,-0.100000)"
fill="#000000" stroke="none">
<path d="M1132 2590 c-168 -24 -361 -91 -499 -175 -316 -192 -529 -494 -609
-865 -26 -119 -26 -381 0 -500 58 -270 168 -474 360 -666 192 -192 396 -302
666 -360 119 -26 381 -26 500 0 270 58 474 168 666 360 192 192 302 396 360
666 26 119 26 381 0 500 -58 270 -168 474 -360 666 -189 188 -384 296 -646
355 -98 22 -340 33 -438 19z m413 -65 c249 -53 459 -167 636 -344 179 -180
292 -388 346 -644 24 -113 24 -361 0 -474 -54 -256 -167 -464 -346 -644 -180
-179 -388 -292 -644 -346 -113 -24 -361 -24 -474 0 -256 54 -464 167 -644 346
-179 180 -292 388 -346 644 -24 113 -24 361 0 474 54 256 167 464 346 644 204
204 458 327 751 363 66 8 305 -4 375 -19z"/>
<path d="M960 1907 l-45 -12 -3 -612 -2 -613 90 0 90 0 0 229 0 228 163 6 c93
3 189 12 225 21 141 35 232 102 280 204 24 51 27 69 27 167 0 100 -3 115 -28
166 -48 100 -139 165 -282 205 -79 21 -447 30 -515 11z m505 -165 c102 -47
139 -103 139 -212 0 -61 -4 -83 -24 -120 -50 -90 -131 -120 -342 -127 l-148
-5 0 247 0 247 163 -4 c142 -3 168 -6 212 -26z"/>
</g>
</svg>
