<?xml version="1.0" standalone="no"?>
<!DOCTYPE svg PUBLIC "-//W3C//DTD SVG 20010904//EN"
 "http://www.w3.org/TR/2001/REC-SVG-20010904/DTD/svg10.dtd">
<svg version="1.0" xmlns="http://www.w3.org/2000/svg"
 width="260.000000pt" height="260.000000pt" viewBox="0 0 260.000000 260.000000"
 preserveAspectRatio="xMidYMid meet">
<metadata>
Created by potrace 1.11, written by Peter Selinger 2001-2013
</metadata>
<g transform="translate(0.000000,260.000000) scale(0.100000,-0.100000)"
fill="#000000" stroke="none">
<path d="M940 1330 l0 -660 85 0 85 0 0 265 0 265 153 0 c286 1 414 55 485
209 38 81 43 230 12 332 -18 61 -30 81 -78 129 -99 98 -195 120 -533 120
l-209 0 0 -660z m494 496 c106 -32 159 -109 160 -230 0 -117 -50 -198 -143
-231 -32 -11 -84 -15 -192 -15 l-149 0 0 245 0 245 138 0 c91 0 155 -5 186
-14z"/>
</g>
</svg>
